# xmcd CD database file
#
# Track frame offsets:
#	150
#	16300
#	35142
#	52042
#	67920
#	80135
#	103237
#	121070
#	141815
#	165287
#
# Disc length: 4442 seconds
#
# Revision: 12
# Processed by: cddbd v1.5.2PL0 Copyright (c) Steve Scherf et al.
# Submitted via: CDex 1.51
#
DISCID=8311580a
DTITLE=Deftones - Around The Fur
DYEAR=1997
DGENRE=Metal
TTITLE0=My Own Summer (Shove It)
TTITLE1=Lhabia
TTITLE2=Mascara
TTITLE3=Around the Fur
TTITLE4=Rickets
TTITLE5=Be Quiet And Drive (Far Away)
TTITLE6=Lotion
TTITLE7=Dai the Flu
TTITLE8=Head Up
TTITLE9=Mx
EXTD=YEAR: 1997
EXTT0=
EXTT1=
EXTT2=
EXTT3=
EXTT4=
EXTT5=
EXTT6=
EXTT7=
EXTT8=
EXTT9=
PLAYORDER=
